<svg width="33" height="24" viewBox="0 0 33 24" fill="none" xmlns="http://www.w3.org/2000/svg">
<path d="M30.7538 0.00213278C30.1923 0.0239494 29.6619 0.261198 29.276 0.663079L11.2962 18.8391L3.70569 11.1501C3.50906 10.9489 3.27396 10.7879 3.01391 10.6764C2.75386 10.5649 2.47398 10.505 2.19035 10.5002C1.90672 10.4955 1.62492 10.5459 1.36115 10.6486C1.09737 10.7513 0.856818 10.9043 0.653302 11.0987C0.449786 11.2931 0.287319 11.5252 0.175233 11.7816C0.0631471 12.0381 0.00365119 12.3137 0.000162842 12.5928C-0.00332551 12.8719 0.0492624 13.149 0.154906 13.408C0.260549 13.6671 0.417166 13.903 0.615761 14.1023L9.7512 23.3556C9.95166 23.5594 10.1917 23.7215 10.4571 23.8322C10.7226 23.9429 11.0079 24 11.2962 24C11.5844 24 11.8698 23.9429 12.1352 23.8322C12.4006 23.7215 12.6407 23.5594 12.8411 23.3556L32.3659 3.61531C32.6736 3.31427 32.8816 2.92865 32.9624 2.50915C33.0432 2.08964 32.9931 1.65589 32.8187 1.26493C32.6442 0.873978 32.3536 0.544117 31.9851 0.318726C31.6165 0.0933349 31.1873 -0.0170332 30.7538 0.00213278Z" fill="#072A49"/>
</svg>
