<svg width="852" height="498" viewBox="0 0 852 498" fill="none" xmlns="http://www.w3.org/2000/svg">
<path d="M846.19 434V84.359H852L851.715 83.9122L851.083 82.9171L846.924 76.4998L846.333 75.5657L845.151 73.7177H844.804H843.683H839.341H838.22H834.673H833.552H829.21H828.089H824.521H823.4H819.058H817.937H814.39H813.269H808.947H807.826H804.259H803.138H798.816H797.695H794.27V29.1215L795.147 29.6495L798.184 31.5178L798.245 31.3757L798.674 30.4009L800.712 25.6286L800.365 25.4052L798.755 24.3695L795.086 22.0341L794.678 21.7904L792.925 20.6734L792.15 20.186L783.772 14.8654L783.365 14.6014L782.162 13.8297L781.775 13.586L776.393 10.1539L775.72 9.72748L773.376 8.2247L772.765 7.83885L764.692 2.70095L764.223 2.39633L762.042 0.995087L760.473 0V0.0203079L758.577 1.21847L758.088 1.52309L756.253 2.70095L755.764 3.00557L747.467 8.28562L747.365 8.34654L739.334 13.4641L738.742 13.85L737.519 14.6217H737.479L728.041 20.6531L727.959 20.7141L722.007 24.5116L721.252 24.999L720.213 25.6692L721.171 27.903V27.9437L722.231 30.3806L722.659 31.3757L722.74 31.5788L726.104 29.5277L726.634 29.2027L726.654 29.1824V73.7786H723.189H722.068H717.746H716.625H713.078H711.957H707.635H706.514H702.967H701.846H697.525H696.403H692.856H691.735H687.414H686.293H682.725H681.584H677.262H676.141H675.815L674.694 75.5047V48.9826L679.994 51.054L683.398 45.9568L629.073 23.8008H629.052V23.8212L610.074 31.5382V22.5824H611.44V18.1146H589.567V22.5824H590.933V39.3364L574.727 45.9365L578.131 51.0337L583.431 48.9623V72.2555H561.66V77.2918H563.23V81.0488L544.782 65.5742V65.5336H544.741L506.071 98.0059V65.9397H513.94L513.083 64.5588L512.778 64.0714L512.227 63.1982L511.901 62.6905L511.29 61.7157L510.984 61.2283L509.761 59.2787L508.252 56.8621L507.559 55.7655H506.112H505.419H503.075H502.382H499.793H499.1H496.776H496.062H493.473H492.78H490.436H489.743H487.134H486.441H484.117H483.424H480.814H480.121H477.777H477.084H474.495H473.782H471.458H470.765H468.156H467.463H465.118H464.425H461.816H461.123H458.779H458.086H455.476H454.783H452.459H451.766H450.951V47.622H452.133V42.4841H428.14V47.622H429.323V55.7655H427.182H426.489H424.92L423.758 57.5932L422.657 59.36L421.515 61.1674L421.21 61.6548L420.618 62.5889L420.292 63.1169L419.721 64.0308L419.416 64.5182L418.519 65.96H426.387V101.113H422.698H421.576H418.009H416.888H412.546H411.425H407.858H406.736H402.415H401.294H397.747H396.626H392.304H391.183H387.636H386.515H382.193H381.072H377.586V56.5169H377.627L378.177 56.8621L381.52 58.8929L381.704 58.4664L382.03 57.715L382.886 55.7045L383.09 55.2172L384.048 53.0036L383.62 52.7193L382.254 51.8461L378.422 49.4091L377.586 48.8811L376.302 48.0688L375.792 47.7439L343.809 27.375V27.3344H343.768L342.198 28.3295L341.424 28.8372L340.017 29.7308L339.12 30.3197L336.633 31.9037L334.86 33.0409L331.476 35.1936L330.701 35.681L328.5 37.0822L326.461 38.3819L322.955 40.6158L322.058 41.1844L320.856 41.9561L320.081 42.4638L309.685 49.0842L309.155 49.4294L305.465 51.7648L303.855 52.8005L303.529 53.0239L304.629 55.6233L304.854 56.1716L306.036 58.9132L309.97 56.5169V101.133H306.545H305.424H301.103H299.982H296.414H295.293H290.972H289.83H286.263H285.142H280.8H279.678H276.111H274.99H270.648H269.527H265.98H264.859H260.537H259.416H259.049L257.989 102.778V93.3148H265.878L264.981 91.8932L264.675 91.4058L264.104 90.492L263.778 89.964L263.187 89.0298L262.881 88.5424L261.74 86.735L260.252 84.3793L259.457 83.1405H255.054V74.997H256.216V69.8592H232.223V74.997H233.385V83.1405H228.839H203.521H178.224V76.3374L183.524 78.4088L186.928 73.3115L170.742 66.7114V49.9574H172.108V45.51H150.235V49.9574H151.601V58.9132L132.623 51.1759V51.1353H132.582L78.257 73.2912L81.6612 78.3885L86.9612 76.3171V125.036L48.6991 92.9086L48.6787 92.9289L30.2305 108.404V104.647H31.8002V99.6102H6.89004V104.647H8.43928V126.559L0 133.646L3.85271 139.393L9.84582 134.276V497.5H846.924L846.19 434Z" fill="#DEEAFF"/>
</svg>
