<svg width="51" height="39" viewBox="0 0 51 39" fill="none" xmlns="http://www.w3.org/2000/svg">
<path d="M37.097 22.765C36.9082 22.4648 36.7038 22.1805 36.4836 21.8961C36.1691 21.4538 35.7916 21.0272 35.2883 20.5217C34.8322 20.0635 34.3604 19.6528 33.8572 19.2894C31.561 17.52 28.7615 16.5879 25.8362 16.5879C22.8795 16.5879 20.08 17.5516 17.7996 19.2894C16.8559 20.0003 16.0067 20.8534 15.2675 21.8171C15.0316 22.1173 14.8114 22.4332 14.5912 22.765C13.2229 24.8978 12.468 27.4413 12.468 30.0164V30.8063V35.5458V36.3357C12.468 37.647 13.5217 38.7054 14.8271 38.7054H36.8453C38.1507 38.7054 39.2044 37.647 39.2044 36.3357V35.5458V30.0164C39.2044 27.4097 38.4495 24.8662 37.097 22.765Z" fill="white"/>
<path d="M32.9136 7.10921C32.9136 11.0272 29.7367 14.2184 25.8363 14.2184C21.9359 14.2184 18.759 11.0272 18.759 7.10921C18.759 3.17545 21.9359 0 25.8363 0C29.7367 0 32.9136 3.17545 32.9136 7.10921Z" fill="white"/>
<path d="M47.8545 7.10921C47.8545 11.0272 44.6776 14.2184 40.7772 14.2184C36.8769 14.2184 33.7 11.0272 33.7 7.10921C33.7 3.17545 36.8769 0 40.7772 0C44.6776 0 47.8545 3.17545 47.8545 7.10921Z" fill="white"/>
<path d="M51 26.8568V33.1761C51 34.4873 49.9463 35.5458 48.6409 35.5458H41.5636V30.0164C41.5636 26.9989 40.6829 23.9657 39.0945 21.5011C38.8586 21.1378 38.6069 20.7902 38.4025 20.5217C38.025 19.9845 37.5846 19.479 36.9555 18.847C36.5938 18.4837 36.2321 18.1519 35.8704 17.8517C37.3487 17.0302 39.0316 16.5879 40.7773 16.5879C43.4981 16.5879 46.0617 17.6464 47.9961 19.5738C49.9463 21.5485 51 24.1237 51 26.8568Z" fill="white"/>
<path d="M15.818 17.8517C14.9373 18.5785 14.1195 19.4316 13.4117 20.3479C13.1444 20.6954 12.877 21.0588 12.6096 21.4854C10.974 24.0289 10.109 26.9831 10.109 30.0164V35.5458H3.0317C1.72634 35.5458 0.672607 34.4873 0.672607 33.1761V26.8568C0.672607 21.201 5.26498 16.5879 10.8954 16.5879C12.6411 16.5879 14.3239 17.0302 15.818 17.8517Z" fill="white"/>
<path d="M17.9727 7.10921C17.9727 11.0272 14.7958 14.2184 10.8954 14.2184C6.99503 14.2184 3.81812 11.0272 3.81812 7.10921C3.81812 3.17545 6.99503 0 10.8954 0C14.7958 0 17.9727 3.17545 17.9727 7.10921Z" fill="white"/>
</svg>
