<svg width="44" height="55" viewBox="0 0 44 55" fill="none" xmlns="http://www.w3.org/2000/svg">
<path d="M42.1667 10.9997H33V1.83301L42.1667 10.9997Z" fill="white"/>
<path d="M7.33333 51.3333C6.36087 51.3333 5.42824 50.947 4.74061 50.2594C4.05298 49.5718 3.66667 48.6391 3.66667 47.6667V11H1.83333C1.3471 11 0.880788 11.1932 0.536971 11.537C0.193155 11.8808 0 12.3471 0 12.8333V53.1667C0 53.6529 0.193155 54.1192 0.536971 54.463C0.880788 54.8068 1.3471 55 1.83333 55H31.1667C31.6529 55 32.1192 54.8068 32.463 54.463C32.8068 54.1192 33 53.6529 33 53.1667V51.3333H7.33333Z" fill="white"/>
<path d="M12.8333 45.8333C11.8609 45.8333 10.9282 45.447 10.2406 44.7594C9.55298 44.0718 9.16667 43.1391 9.16667 42.1667V5.5H7.33333C6.8471 5.5 6.38079 5.69315 6.03697 6.03697C5.69315 6.38079 5.5 6.8471 5.5 7.33333V47.6667C5.5 48.1529 5.69315 48.6192 6.03697 48.963C6.38079 49.3068 6.8471 49.5 7.33333 49.5H36.6667C37.1529 49.5 37.6192 49.3068 37.963 48.963C38.3068 48.6192 38.5 48.1529 38.5 47.6667V45.8333H12.8333Z" fill="white"/>
<path d="M31.1667 12.8333V0H12.8333C12.3471 0 11.8808 0.193154 11.537 0.536971C11.1932 0.880788 11 1.3471 11 1.83333V42.1667C11 42.6529 11.1932 43.1192 11.537 43.463C11.8808 43.8068 12.3471 44 12.8333 44H42.1667C42.6529 44 43.1192 43.8068 43.463 43.463C43.8068 43.1192 44 42.6529 44 42.1667V12.8333H31.1667Z" fill="white"/>
</svg>
