<svg width="46" height="55" viewBox="0 0 46 55" fill="none" xmlns="http://www.w3.org/2000/svg">
<path d="M42.5881 5.23359L24.2949 0.183252C23.4469 -0.0612165 22.5635 -0.0609517 21.7051 0.183252L3.41191 5.23359C1.39766 5.78333 0 7.59574 0 9.65251V25.068C0 33.6005 3.94634 41.5424 10.832 46.8574C25.2163 57.6897 20.7482 57.7387 35.168 46.8573C42.0537 41.5424 46 33.6005 46 25.068V9.65251C46 7.59574 44.6023 5.78333 42.5881 5.23359ZM35.4146 20.7713L18.6425 34.5983C17.7711 35.3477 16.3118 35.1582 15.6622 34.2317C15.6622 34.2318 10.2359 26.7989 10.2359 26.7989C9.57811 25.8825 9.78373 24.6199 10.7087 23.948C11.6335 23.2964 12.908 23.5 13.5862 24.4164L17.697 30.0775L32.7837 17.6555C34.8403 15.9361 37.462 19.0795 35.4146 20.7713Z" fill="white"/>
</svg>
