<svg width="1305" height="396" viewBox="0 0 1305 396" fill="none" xmlns="http://www.w3.org/2000/svg">
<path d="M1322.73 763V148.309H1332L1331.54 147.523L1330.54 145.774L1323.9 134.492L1322.96 132.849L1321.08 129.6H1320.52H1318.73H1311.81H1310.02H1304.36H1302.57H1295.65H1293.86H1288.17H1286.38H1279.46H1277.67H1272.01H1270.22H1263.33H1261.54H1255.85H1254.06H1247.17H1245.38H1239.92V51.1975L1241.32 52.1258L1246.16 55.4104L1246.26 55.1605L1246.94 53.4468L1250.19 45.0567L1249.64 44.6639L1247.07 42.8431L1241.22 38.7373L1240.57 38.3089L1237.77 36.3452L1236.54 35.4884L1223.17 26.1343L1222.52 25.6702L1220.6 24.3135L1219.99 23.885L1211.4 17.8513L1210.33 17.1015L1206.59 14.4595L1205.61 13.7812L1192.74 4.74844L1191.99 4.21291L1188.51 1.74943L1186.01 0V0.0357026L1182.98 2.14216L1182.2 2.67769L1179.28 4.74844L1178.5 5.28398L1165.26 14.5667L1165.1 14.6738L1152.29 23.6708L1151.35 24.3492L1149.4 25.7059H1149.33L1134.28 36.3095L1134.15 36.4166L1124.65 43.093L1123.45 43.9499L1121.79 45.1281L1123.32 49.0554V49.1268L1125.01 53.4111L1125.69 55.1605L1125.82 55.5175L1131.19 51.9116L1132.03 51.3403L1132.06 51.3046V129.708H1126.54H1124.75H1117.86H1116.07H1110.41H1108.62H1101.73H1099.94H1094.28H1092.49H1085.6H1083.81H1078.16H1076.37H1069.47H1067.69H1061.99H1060.17H1053.28H1051.49H1050.97L1049.18 132.742V86.1146L1057.64 89.7563L1063.07 80.795L976.415 41.8434H976.383V41.8791L946.111 55.4461V39.7013H948.29V31.8467H913.401V39.7013H915.58V69.1559L889.73 80.7592L895.16 89.7206L903.614 86.0789V127.03H868.888V135.884H871.392V142.489L841.965 115.284V115.212H841.9L780.219 172.301V115.926H792.77L791.404 113.499L790.917 112.642L790.039 111.106L789.519 110.214L788.543 108.5L788.055 107.643L786.104 104.216L783.698 99.9672L782.593 98.0393H780.284H779.179H775.44H774.334H770.205H769.099H765.392H764.254H760.125H759.019H755.28H754.175H750.013H748.907H745.2H744.095H739.933H738.828H735.088H733.983H729.853H728.715H725.009H723.903H719.741H718.636H714.896H713.791H709.629H708.523H704.784H703.679H699.517H698.411H694.705H693.599H692.298V83.7226H694.184V74.6898H655.914V83.7226H657.8V98.0393H654.386H653.28H650.777L648.923 101.253L647.168 104.359L645.347 107.536L644.859 108.393L643.916 110.035L643.396 110.964L642.485 112.57L641.998 113.427L640.567 115.962H653.118V177.763H647.233H645.444H639.754H637.966H631.04H629.252H623.562H621.773H614.88H613.092H607.434H605.646H598.753H596.964H591.307H589.518H582.625H580.837H575.277V99.3603H575.342L576.22 99.9672L581.552 103.538L581.845 102.788L582.365 101.467L583.731 97.9322L584.056 97.0753L585.584 93.1838L584.901 92.6839L582.723 91.1487L576.61 86.8644L575.277 85.9361L573.228 84.508L572.415 83.9368L521.399 48.1271V48.0557H521.334L518.831 49.8051L517.595 50.6977L515.351 52.2686L513.921 53.304L509.954 56.0888L507.125 58.0881L501.728 61.8726L500.492 62.7294L496.98 65.1929L493.729 67.4779L488.136 71.4052L486.706 72.4048L484.787 73.7615L483.552 74.6541L466.969 86.2932L466.124 86.9001L460.238 91.0059L457.67 92.8267L457.149 93.2195L458.905 97.7894L459.263 98.7533L461.149 103.573L467.424 99.3603V177.799H461.962H460.173H453.28H451.492H445.802H444.013H437.12H435.299H429.609H427.821H420.895H419.107H413.417H411.628H404.703H402.914H397.257H395.468H388.575H386.787H386.202L384.511 180.691V164.053H397.094L395.663 161.554L395.176 160.697L394.265 159.091L393.745 158.162L392.802 156.52L392.314 155.663L390.494 152.486L388.12 148.344L386.852 146.166H379.829V131.85H381.682V122.817H343.412V131.85H345.265V146.166H338.014H297.63H257.279V134.206L265.733 137.848L271.163 128.886L245.346 117.283V87.8284H247.525V80.0095H212.636V87.8284H214.815V103.573L184.543 89.9705V89.8991H184.478L97.8254 128.851L103.255 137.812L111.709 134.17V219.821L50.6785 163.339L50.646 163.375L21.2199 190.58V183.975H23.7235V175.121H-16.0099V183.975H-13.5388V222.499L-27 234.959L-20.8547 245.063L-11.2952 236.065V762.893L1322.73 762.964V763Z" fill="#DEEAFF"/>
</svg>
