<svg width="65" height="65" viewBox="0 0 65 65" fill="none" xmlns="http://www.w3.org/2000/svg">
<path d="M36.3179 32.5018L47.9637 20.8831C48.4737 20.3731 48.7602 19.6814 48.7602 18.9601C48.7602 18.2389 48.4737 17.5472 47.9637 17.0372C47.4537 16.5272 46.762 16.2407 46.0408 16.2407C45.3195 16.2407 44.6278 16.5272 44.1179 17.0372L32.4991 28.6831L20.8804 17.0372C20.3704 16.5272 19.6787 16.2407 18.9574 16.2407C18.2362 16.2407 17.5445 16.5272 17.0345 17.0372C16.5245 17.5472 16.238 18.2389 16.238 18.9601C16.238 19.6814 16.5245 20.3731 17.0345 20.8831L28.6804 32.5018L17.0345 44.1206C16.7807 44.3723 16.5792 44.6719 16.4417 45.0019C16.3042 45.3319 16.2334 45.6859 16.2334 46.0435C16.2334 46.401 16.3042 46.755 16.4417 47.085C16.5792 47.4151 16.7807 47.7146 17.0345 47.9664C17.2863 48.2202 17.5858 48.4217 17.9159 48.5592C18.2459 48.6967 18.5999 48.7675 18.9574 48.7675C19.315 48.7675 19.669 48.6967 19.999 48.5592C20.329 48.4217 20.6286 48.2202 20.8804 47.9664L32.4991 36.3206L44.1179 47.9664C44.3696 48.2202 44.6692 48.4217 44.9992 48.5592C45.3292 48.6967 45.6832 48.7675 46.0408 48.7675C46.3983 48.7675 46.7523 48.6967 47.0823 48.5592C47.4124 48.4217 47.7119 48.2202 47.9637 47.9664C48.2175 47.7146 48.419 47.4151 48.5565 47.085C48.694 46.755 48.7648 46.401 48.7648 46.0435C48.7648 45.6859 48.694 45.3319 48.5565 45.0019C48.419 44.6719 48.2175 44.3723 47.9637 44.1206L36.3179 32.5018Z" fill="#231F20"/>
</svg>
