<svg width="390" height="260" viewBox="0 0 390 260" fill="none" xmlns="http://www.w3.org/2000/svg">
<path d="M390 63V44V41.7666L389.859 41.5454L389.547 41.0528L387.492 37.8755L387.2 37.413L386.616 36.4981H386.444H385.89H383.745H383.191H381.438H380.884H378.739H378.185H376.422H375.868H373.722H373.168H371.416H370.862H368.726H368.172H366.41H365.856H363.72H363.166H361.474V14.4182L361.907 14.6797L363.408 15.6047L363.438 15.5343L363.65 15.0517L364.657 12.6889L364.486 12.5783L363.69 12.0655L361.877 10.9092L361.675 10.7885L360.809 10.2355L360.426 9.99423L356.287 7.35994L356.085 7.22923L355.491 6.84715L355.299 6.7265L352.64 5.02728L352.308 4.81613L351.149 4.0721L350.847 3.88106L346.858 1.33726L346.627 1.18644L345.549 0.492673L344.773 0V0.0100546L343.837 0.603274L343.595 0.754092L342.688 1.33726L342.447 1.48807L338.347 4.10226L338.297 4.13242L334.328 6.66617L334.036 6.85721L333.431 7.23928H333.411L328.748 10.2255L328.707 10.2556L325.766 12.1359L325.393 12.3772L324.88 12.709L325.353 13.815V13.8351L325.877 15.0416L326.088 15.5343L326.129 15.6348L327.791 14.6193L328.053 14.4585L328.063 14.4484V36.5282H326.35H325.796H323.661H323.107H321.354H320.8H318.665H318.111H316.358H315.804H313.669H313.115H311.362H310.808H308.673H308.119H306.356H305.792H303.657H303.103H302.941L302.387 37.3829V24.2516L305.006 25.2772L306.688 22.7535L279.845 11.7839H279.834V11.794L270.457 15.6147V11.1807H271.132V8.96867H260.324V11.1807H260.998V19.4757L252.991 22.7434L254.673 25.2671L257.292 24.2415V35.7741H246.534V38.2677H247.31V40.1277L238.194 32.4662V32.4461H238.174L219.066 48.5233V32.6472H222.954L222.531 31.9634L222.38 31.7221L222.108 31.2898L221.946 31.0384L221.644 30.5558L221.493 30.3145L220.889 29.3493L220.143 28.1528L219.801 27.6098H219.086H218.743H217.585H217.243H215.963H215.621H214.473H214.12H212.841H212.498H211.34H210.997H209.708H209.366H208.217H207.875H206.586H206.243H205.085H204.742H203.463H203.11H201.962H201.62H200.33H199.988H198.83H198.487H197.198H196.855H195.697H195.354H194.065H193.723H192.574H192.232H191.829V23.5779H192.413V21.0341H180.558V23.5779H181.142V27.6098H180.084H179.742H178.966L178.392 28.5147L177.848 29.3895L177.284 30.2843L177.133 30.5256L176.841 30.9881L176.68 31.2496L176.398 31.702L176.246 31.9433L175.803 32.6572H179.691V50.0616H177.868H177.314H175.551H174.997H172.852H172.298H170.535H169.981H167.846H167.292H165.539H164.985H162.85H162.296H160.543H159.989H157.854H157.3H155.577V27.9818H155.597L155.869 28.1528L157.521 29.1582L157.612 28.9471L157.773 28.5751L158.196 27.5797L158.297 27.3383L158.77 26.2424L158.559 26.1016L157.884 25.6693L155.99 24.4627L155.577 24.2013L154.943 23.7991L154.691 23.6383L138.887 13.5535V13.5334H138.867L138.091 14.0261L137.708 14.2775L137.013 14.7199L136.57 15.0115L135.341 15.7957L134.465 16.3588L132.793 17.4245L132.41 17.6659L131.322 18.3596L130.315 19.0031L128.582 20.1091L128.139 20.3906L127.545 20.7727L127.162 21.0241L122.025 24.3019L121.763 24.4728L119.94 25.6291L119.144 26.1419L118.983 26.2525L119.527 27.5394L119.638 27.8109L120.222 29.1683L122.166 27.9818V50.0717H120.474H119.92H117.784H117.23H115.468H114.914H112.778H112.214H110.451H109.897H107.752H107.198H105.435H104.881H102.736H102.182H100.429H99.875H97.7396H97.1856H97.0043L96.4805 50.8861V46.2007H100.379L99.9355 45.4969L99.7844 45.2556L99.5023 44.8031L99.3412 44.5417L99.0491 44.0792L98.898 43.8379L98.3339 42.943L97.5986 41.7767L97.2057 41.1634H95.03V37.1315H95.6042V34.5877H83.7486V37.1315H84.3227V41.1634H82.0765H69.5662H57.0659V37.7951L59.6848 38.8207L61.367 36.297L53.3692 33.0292V24.7342H54.0441V22.5323H43.2361V24.7342H43.9109V29.1683L34.5332 25.3375V25.3174H34.5131L7.66922 36.2869L9.35137 38.8106L11.9703 37.785V61.9059L-6.93624 45.9996L-6.94631 46.0097L-16.0621 53.6712V51.8111H-15.2865V49.3176H-27.5954V51.8111H-26.8299V62.66L-31 66.1691L-29.0963 69.0145L-26.1349 66.4807V260H402.5L390 63Z" fill="#DEEAFF"/>
</svg>
