<svg width="834" height="405" viewBox="0 0 834 405" fill="none" xmlns="http://www.w3.org/2000/svg">
<path d="M936.79 161.5L936.608 107.742H944L943.637 107.171L942.833 105.9L937.542 97.7044L936.79 96.5113L935.286 94.151H934.845H933.418H927.894H926.468H921.955H920.528H915.004H913.578H909.039H907.612H902.088H900.662H896.149H894.722H889.224H887.798H883.259H881.833H876.334H874.908H870.551V37.1935L871.666 37.8679L875.53 40.2541L875.608 40.0725L876.153 38.8276L878.746 32.7324L878.305 32.4471L876.256 31.1243L871.588 28.1416L871.069 27.8303L868.839 26.4038L867.853 25.7813L857.194 18.9858L856.675 18.6486L855.145 17.663L854.652 17.3518L847.805 12.9685L846.949 12.4238L843.967 10.5045L843.189 10.0116L832.918 3.44961L832.322 3.06056L829.547 1.27091L827.55 0V0.0259369L825.138 1.55622L824.515 1.94527L822.181 3.44961L821.558 3.83866L811.003 10.5823L810.873 10.6601L800.654 17.1962L799.902 17.689L798.346 18.6746H798.294L786.286 26.3778L786.182 26.4557L778.609 31.3059L777.65 31.9283L776.327 32.7843L777.546 35.6373V35.6892L778.895 38.8016L779.439 40.0725L779.543 40.3319L783.822 37.7123L784.497 37.2973L784.523 37.2714V94.2288H780.114H778.687H773.189H771.762H767.25H765.823H760.325H758.898H754.386H752.959H747.461H746.034H741.522H740.095H734.597H733.17H728.632H727.179H721.681H720.254H719.839L718.413 96.4335V62.5598L725.156 65.2054L729.487 58.6952L660.369 30.3981H660.343V30.424L636.197 40.28V28.8419H637.935V23.1357H610.106V28.8419H611.844V50.2398L591.225 58.6693L595.557 65.1795L602.3 62.5339V92.2836H574.601V98.7159H576.598V103.514L553.126 83.7503V83.6984H553.074L503.875 125.172V84.2172H513.886L512.796 82.4535L512.407 81.831L511.707 80.7157L511.292 80.0673L510.514 78.8223L510.125 78.1998L508.569 75.7099L506.65 72.6234L505.768 71.2228H503.926H503.045H500.062H499.18H495.886H495.005H492.048H491.14H487.846H486.965H483.982H483.1H479.78H478.899H475.942H475.06H471.74H470.859H467.876H466.994H463.7H462.793H459.836H458.954H455.635H454.753H451.77H450.888H447.569H446.687H443.704H442.822H439.503H438.621H435.664H434.782H433.745V60.8221H435.249V54.26H404.723V60.8221H406.227V71.2228H403.504H402.622H400.625L399.147 73.5571L397.747 75.8136L396.294 78.122L395.905 78.7445L395.153 79.9376L394.738 80.6119L394.012 81.7791L393.623 82.4016L392.482 84.2431H402.493V129.14H397.798H396.372H391.833H390.407H384.883H383.456H378.917H377.491H371.993H370.566H366.053H364.627H359.129H357.702H353.189H351.763H346.265H344.838H340.403V72.1824H340.455L341.155 72.6234L345.409 75.2171L345.642 74.6724L346.057 73.7127L347.146 71.145L347.406 70.5225L348.625 67.6954L348.08 67.3322L346.342 66.217L341.466 63.1045L340.403 62.4302L338.769 61.3927L338.121 60.9777L297.428 34.963V34.9111H297.376L295.379 36.182L294.394 36.8304L292.604 37.9716L291.463 38.7238L288.299 40.7469L286.042 42.1994L281.737 44.9487L280.752 45.5712L277.95 47.3608L275.357 49.0208L270.896 51.8738L269.755 52.6001L268.225 53.5857L267.239 54.2341L254.012 62.6895L253.338 63.1305L248.643 66.1132L246.594 67.436L246.179 67.7213L247.58 71.0412L247.865 71.7415L249.37 75.243L254.375 72.1824V129.166H250.018H248.592H243.093H241.667H237.128H235.702H230.203H228.751H224.212H222.786H217.261H215.835H211.296H209.87H204.346H202.919H198.406H196.98H191.482H190.055H189.588L188.24 131.267V119.18H198.277L197.135 117.365L196.746 116.742L196.02 115.575L195.605 114.901L194.853 113.707L194.464 113.085L193.012 110.777L191.118 107.768L190.107 106.186H184.505V95.785H185.983V89.223H155.457V95.785H156.935V106.186H151.152H118.94H86.754V97.4969L93.4973 100.142L97.8285 93.6323L77.2357 85.2028V63.8048H78.9734V58.1246H51.1446V63.8048H52.8823V75.243L28.7363 65.361V65.3092H28.6845L-40.4336 93.6063L-36.1024 100.117L-29.3592 97.4709V159.694L-78.0401 118.661L-78.066 118.687L-101.538 138.451V133.653H-99.5406V127.221H-131.234V133.653H-129.263V161.639L-140 170.691L-135.098 178.031L-127.473 171.495L-131.234 405H926.468L936.79 161.5Z" fill="#DEEAFF"/>
</svg>
