<svg width="1280" height="558" viewBox="0 0 1280 558" fill="none" xmlns="http://www.w3.org/2000/svg">
<path d="M1284.21 492L1283.09 129.843H1292L1291.56 129.155L1290.59 127.624L1284.21 117.746L1283.31 116.308L1281.49 113.464H1280.96H1279.24H1272.58H1270.86H1265.42H1263.7H1257.04H1255.32H1249.85H1248.13H1241.47H1239.75H1234.3H1232.59H1225.96H1224.24H1218.76H1217.04H1210.41H1208.69H1203.44V44.823L1204.79 45.6357L1209.44 48.5113L1209.54 48.2925L1210.2 46.7922L1213.32 39.4467L1212.79 39.1029L1210.32 37.5088L1204.69 33.9142L1204.07 33.5391L1201.38 31.8199L1200.19 31.0698L1187.34 22.8804L1186.71 22.474L1184.87 21.2862L1184.27 20.9111L1176.02 15.6287L1174.98 14.9723L1171.39 12.6592L1170.45 12.0653L1158.07 4.15722L1157.35 3.68836L1154 1.53161L1151.59 0V0.0312573L1148.69 1.87544L1147.93 2.3443L1145.12 4.15722L1144.37 4.62608L1131.64 12.753L1131.49 12.8468L1119.17 20.7236L1118.26 21.3175L1116.38 22.5053H1116.32L1101.84 31.7887L1101.72 31.8825L1092.59 37.7276L1091.43 38.4777L1089.83 39.5092L1091.3 42.9475V43.0101L1092.93 46.7609L1093.59 48.2925L1093.71 48.6051L1098.87 45.4481L1099.68 44.948L1099.71 44.9168V113.558H1094.4H1092.68H1086.05H1084.33H1078.89H1077.17H1070.54H1068.82H1063.38H1061.66H1055.03H1053.31H1047.87H1046.15H1039.52H1037.8H1032.33H1030.57H1023.95H1022.23H1021.73L1020.01 116.215V75.3926L1028.14 78.5809L1033.36 70.7353L950.021 36.6336H949.99V36.6648L920.876 48.5426V34.7581H922.972V27.8815H889.418V34.7581H891.513V60.5454L866.653 70.704L871.875 78.5496L880.005 75.3614V111.214H846.608V118.965H849.016V124.748L820.716 100.93V100.867H820.653L761.332 150.848V101.492H773.403L772.089 99.367L771.62 98.6168L770.776 97.2728L770.276 96.4913L769.337 94.991L768.868 94.2408L766.992 91.2401L764.678 87.5205L763.615 85.8326H761.395H760.331H756.735H755.672H751.701H750.638H747.073H745.978H742.007H740.943H737.347H736.284H732.281H731.218H727.653H726.59H722.587H721.524H717.928H716.865H712.893H711.799H708.234H707.171H703.168H702.105H698.509H697.446H693.443H692.38H688.784H687.72H683.718H682.654H679.09H678.026H676.776V73.2984H678.589V65.3903H641.783V73.2984H643.597V85.8326H640.314H639.25H636.843L635.06 88.6457L633.371 91.3651L631.62 94.147L631.151 94.8972L630.244 96.335L629.744 97.1477L628.868 98.5543L628.399 99.3045L627.023 101.524H639.094V155.63H633.434H631.714H626.242H624.522H617.861H616.141H610.669H608.949H602.319H600.6H595.158H593.438H586.809H585.089H579.648H577.928H571.299H569.579H564.231V86.9891H564.294L565.138 87.5205L570.267 90.6462L570.548 89.9898L571.049 88.8333L572.362 85.7388L572.675 84.9886L574.144 81.5816L573.488 81.144L571.392 79.7999L565.514 76.049L564.231 75.2363L562.261 73.9861L561.48 73.4859L512.415 42.1349V42.0723H512.353L509.945 43.6039L508.757 44.3854L506.599 45.7607L505.223 46.6672L501.408 49.1052L498.688 50.8556L493.497 54.1689L492.308 54.9191L488.931 57.0759L485.804 59.0763L480.425 62.5146L479.049 63.3898L477.204 64.5776L476.016 65.359L460.068 75.5489L459.255 76.0803L453.595 79.6749L451.124 81.269L450.624 81.6128L452.313 85.6138L452.657 86.4577L454.47 90.6775L460.506 86.9891V155.661H455.252H453.532H446.903H445.183H439.711H437.991H431.361H429.61H424.138H422.418H415.757H414.037H408.565H406.845H400.184H398.464H393.023H391.303H384.674H382.954H382.391L380.765 158.193V143.627H392.867L391.491 141.439L391.022 140.689L390.146 139.283L389.646 138.47L388.739 137.032L388.27 136.282L386.519 133.5L384.236 129.874L383.016 127.967H376.262V115.433H378.044V107.525H341.238V115.433H343.021V127.967H336.047H297.209H258.402V117.496L266.532 120.684L271.754 112.839L246.925 102.68V76.893H249.02V70.0476H215.467V76.893H217.562V90.6775L188.449 78.7684V78.7059H188.386L105.049 112.808L110.271 120.653L118.402 117.465V192.451L59.7063 143.002L59.675 143.033L31.3748 166.852V161.069H33.7827V153.317H-4.43043V161.069H-2.05383V194.796L-15 205.704L-9.08979 214.55L0.103861 206.673V557.5H1283.09L1284.21 492Z" fill="#DEEAFF"/>
</svg>
