<svg width="1920" height="675" viewBox="0 0 1920 675" fill="none" xmlns="http://www.w3.org/2000/svg">
<path d="M1922.84 500L1928.61 201.671H1942L1941.34 200.603L1939.89 198.224L1930.31 182.883L1928.94 180.649L1926.22 176.231H1925.42H1922.84H1912.83H1910.25H1902.08H1899.5H1889.49H1886.91H1878.69H1876.11H1866.1H1863.52H1855.35H1852.76H1842.81H1840.22H1832H1829.42H1819.46H1816.88H1808.99V69.6187L1811.01 70.8809L1818.01 75.3474L1818.15 75.0076L1819.14 72.6772L1823.83 61.2683L1823.03 60.7343L1819.32 58.2583L1810.87 52.6752L1809.93 52.0926L1805.89 49.4225L1804.11 48.2573L1784.8 35.5376L1783.86 34.9064L1781.09 33.0616L1780.2 32.479L1767.8 24.2743L1766.25 23.2548L1760.85 19.6622L1759.44 18.7398L1740.84 6.45696L1739.76 5.72873L1734.74 2.37888L1731.12 0V0.0485486L1726.75 2.91292L1725.63 3.64114L1721.4 6.45696L1720.27 7.18519L1701.16 19.8078L1700.92 19.9535L1682.42 32.1877L1681.06 33.1101L1678.24 34.955H1678.14L1656.4 49.3739L1656.21 49.5196L1642.5 58.5981L1640.76 59.7633L1638.36 61.3654L1640.57 66.7057V66.8029L1643.01 72.6287L1644 75.0076L1644.19 75.4931L1651.94 70.5896L1653.16 69.8129L1653.2 69.7643V176.377H1645.22H1642.64H1632.68H1630.1H1621.92H1619.34H1609.39H1606.8H1598.63H1596.05H1586.09H1583.51H1575.33H1572.75H1562.79H1560.21H1551.99H1549.36H1539.41H1536.82H1536.07L1533.49 180.504V117.099L1545.7 122.051L1553.54 109.865L1428.38 56.8989H1428.33V56.9475L1384.6 75.396V53.986H1387.75V43.3053H1337.36V53.986H1340.5V94.0386L1303.17 109.817L1311.01 122.003L1323.22 117.051V172.736H1273.06V184.776H1276.68V193.757L1234.17 156.763V156.666H1234.08L1144.98 234.296V157.637H1163.11L1161.14 154.336L1160.43 153.171L1159.17 151.083L1158.42 149.869L1157.01 147.539L1156.3 146.374L1153.48 141.713L1150.01 135.936L1148.41 133.314H1145.08H1143.48H1138.08H1136.48H1130.52H1128.92H1123.57H1121.92H1115.96H1114.36H1108.96H1107.36H1101.35H1099.75H1094.4H1092.8H1086.79H1085.2H1079.79H1078.2H1072.23H1070.59H1065.23H1063.64H1057.63H1056.03H1050.63H1049.03H1043.02H1041.42H1036.02H1034.42H1028.41H1026.82H1021.46H1019.87H1017.99V113.846H1020.71V101.564H965.431V113.846H968.155V133.314H963.224H961.627H958.011L955.334 137.684L952.797 141.908L950.167 146.228L949.463 147.394L948.101 149.627L947.349 150.889L946.034 153.074L945.33 154.239L943.263 157.686H961.392V241.723H952.891H950.308H942.089H939.506H929.502H926.919H918.7H916.117H906.16H903.577H895.405H892.821H882.865H880.282H872.109H869.526H859.569H856.986H848.955V135.111H849.049L850.317 135.936L858.02 140.791L858.442 139.771L859.194 137.975L861.166 133.169L861.636 132.004L863.843 126.712L862.857 126.032L859.71 123.945L850.881 118.119L848.955 116.856L845.996 114.915L844.822 114.138L771.132 65.4435V65.3464H771.038L767.422 67.7253L765.637 68.939L762.396 71.0751L760.33 72.483L754.6 76.2698L750.514 78.9886L742.718 84.1347L740.933 85.2999L735.86 88.6497L731.164 91.7568L723.086 97.0972L721.019 98.4565L718.248 100.301L716.463 101.515L692.511 117.342L691.289 118.167L682.789 123.75L679.078 126.226L678.327 126.76L680.863 132.975L681.38 134.285L684.104 140.839L693.168 135.111V241.772H685.278H682.695H672.738H670.155H661.936H659.353H649.396H646.766H638.546H635.963H625.96H623.376H615.157H612.574H602.57H599.987H591.815H589.232H579.275H576.692H575.847L573.404 245.704V223.081H591.58L589.514 219.682L588.809 218.517L587.494 216.333L586.743 215.07L585.381 212.837L584.676 211.672L582.046 207.351L578.618 201.719L576.786 198.758H566.641V179.29H569.318V167.007H514.039V179.29H516.716V198.758H506.243H447.911H389.626V182.494L401.837 187.446L409.68 175.26L372.389 159.482V119.43H375.536V108.797H325.141V119.43H328.288V140.839L284.562 122.342V122.245H284.468L159.303 175.212L167.147 187.398L179.358 182.446V298.914L91.2023 222.11L91.1553 222.158L48.6509 259.152V250.171H52.2673V238.131H-5.12542V250.171H-1.55599V302.555L-21 319.498L-12.1234 333.238L1.68468 321.003V674.5H1922.84V500Z" fill="#DEEAFF"/>
</svg>
